<svg width="74" height="72" viewBox="0 0 74 72" fill="none" xmlns="http://www.w3.org/2000/svg"><path d="M69.9 47.7H4.1C1.8 47.7 0 49.6 0 52v3.5c0 2.4 1.9 4.3 4.1 4.3H5v1.1C5 66.4 9.3 71 14.6 71h44.6c5.3 0 9.6-4.5 9.6-10.1v-1.1h.9c2.3 0 4.1-1.9 4.1-4.3V52c.2-2.3-1.7-4.3-3.9-4.3ZM66 60.9c0 3.9-3 7-6.7 7H14.6c-3.7 0-6.7-3.2-6.7-7v-1.1H66v1.1Zm5.1-5.4c0 .7-.6 1.3-1.2 1.3H4c-.7 0-1.2-.6-1.2-1.3V52c0-.7.6-1.3 1.2-1.3h65.8c.7 0 1.2.6 1.2 1.3.1 0 .1 3.5.1 3.5ZM15.6 39.4l5.4 4.1 5.3-4.1 5.3 4.1 5.3-4.1 5.4 4.1 5.3-4.1 5.3 4.1 5.4-4.1 5.3 4.1 6.2-4.7-1.7-2.5-4.5 3.4-5.3-4.1-5.4 4.1-5.3-4.1-5.3 4.1-5.4-4.1-5.3 4.1-5.3-4.1-5.3 4.1-5.4-4.1-5.3 4.1-4.5-3.4-1.7 2.5 6.2 4.7 5.3-4.1ZM8 32.5h60.8c0-.6.1-1.2.1-1.9v-1.2C68.2 13.7 54.2 1 37 1 19.7 1 5.7 13.7 5 29.5v1.2c0 .6 0 1.3.1 1.9H8v-.1ZM37 4c15.6 0 28.4 11.3 29 25.5H8C8.6 15.4 21.4 4 37 4Z" fill="#83B3D3"/><path d="M37 18.3c1.05 0 1.9-.895 1.9-2s-.85-2-1.9-2c-1.05 0-1.9.895-1.9 2s.85 2 1.9 2ZM29.2 13.2c1.05 0 1.9-.895 1.9-2s-.85-2-1.9-2c-1.05 0-1.9.895-1.9 2s.85 2 1.9 2ZM44.7 13.2c1.05 0 1.9-.895 1.9-2s-.85-2-1.9-2c-1.05 0-1.9.895-1.9 2s.85 2 1.9 2Z" fill="#83B3D3"/></svg>