<svg width="70" height="72" viewBox="0 0 70 72" fill="none" xmlns="http://www.w3.org/2000/svg"><path d="M66.828 21.28H39.703C54.797 14.74 56 10.567 55.453 8.292 54.141 4.5 49.22 1.656 44.516 3.172c-6.125 1.992-7.766 9.86-9.407 15.549-2.187-5.783-4.156-13.083-8.968-16.78C24.719.897 22.75-.24 19.797.043c-4.375.38-10.719 5.12-8.203 10.429 2.515 5.12 10.61 8.342 15.969 10.902H3.172c-1.75 0-3.172 1.233-3.172 2.75v10.712c0 1.517 1.422 2.75 3.172 2.75H3.5V72h63.219V37.492h.11c1.75 0 3.171-1.233 3.171-2.75V24.03c0-1.517-1.422-2.75-3.172-2.75ZM46.375 5.543c2.297-.285 5.469 1.232 5.797 3.034.437 2.654-3.719 5.024-5.578 6.067-2.735 1.612-5.36 2.465-7.985 3.887.985-3.508 2.735-12.324 7.766-12.988Zm-25.047 9.48c-2.406-1.422-7.11-4.171-7-7.394.11-3.413 6.235-6.257 9.625-3.698 4.266 3.224 6.235 10.523 7.766 15.738-3.5-1.422-6.89-2.655-10.39-4.646Zm6.563 54.133H6.67V37.492h21.22v31.664Zm0-34.603H3.28V24.124h24.61v10.429Zm11.156 0v34.603h-7.875V24.219h7.875v10.334Zm24.39 34.603H42.22V37.492h21.218v31.664Zm3.172-34.603H42.22V24.124h24.39v10.429Z" fill="#83B3D3"/></svg>