<svg width="70" height="72" viewBox="0 0 70 72" fill="none" xmlns="http://www.w3.org/2000/svg"><path d="M27.644 65h14.993V41.2H27.644V65Zm2.717-20.9h9.465v18h-9.465v-18Z" fill="#83B3D3"/><path d="M68.032 39.3 70 37.2l-9.277-9.9V0H47.697v13.6L34.953 0 0 37.2l1.968 2.1 7.31-7.8v37.6h-3.75V72h59.88v-2.9H60.63V31.5l7.403 7.8Zm-10.12 29.8H11.995V28.5L34.953 4.1l22.959 24.4v40.6Zm0-44.7-7.403-7.9V2.9h7.403v21.5Z" fill="#83B3D3"/><path d="M27.831 27.1c0 4.3 3.28 7.7 7.216 7.7 4.03 0 7.31-3.5 7.31-7.7 0-4.3-3.28-7.7-7.31-7.7-3.936 0-7.216 3.4-7.216 7.7Zm7.31-5c2.53 0 4.685 2.2 4.685 4.9s-2.062 4.9-4.685 4.9c-2.53 0-4.686-2.2-4.686-4.9s2.062-4.9 4.686-4.9ZM18.648 41.2h-2.811v3.9h2.81v-3.9ZM24.177 41.2h-2.811v3.9h2.81v-3.9ZM18.648 47.2h-2.811v3.9h2.81v-3.9ZM24.177 47.2h-2.811v3.9h2.81v-3.9ZM48.54 41.2h-2.81v3.9h2.81v-3.9ZM54.07 41.2h-2.812v3.9h2.812v-3.9ZM48.54 47.2h-2.81v3.9h2.81v-3.9ZM54.07 47.2h-2.812v3.9h2.812v-3.9Z" fill="#83B3D3"/></svg>