<svg width="287" height="48" viewBox="0 0 287 48" fill="none" xmlns="http://www.w3.org/2000/svg">
<path d="M28.594 30.478C28.234 30.754 27.778 30.946 27.226 31.054C26.674 31.162 26.086 31.216 25.462 31.216C24.706 31.216 23.998 31.09 23.338 30.838C22.678 30.574 22.102 30.178 21.61 29.65C21.118 29.122 20.728 28.45 20.44 27.634C20.152 26.806 20.008 25.828 20.008 24.7C20.008 23.524 20.164 22.528 20.476 21.712C20.8 20.884 21.22 20.212 21.736 19.696C22.264 19.168 22.852 18.784 23.5 18.544C24.148 18.304 24.808 18.184 25.48 18.184C26.2 18.184 26.788 18.226 27.244 18.31C27.7 18.382 28.09 18.484 28.414 18.616L28.054 19.93C27.478 19.654 26.656 19.516 25.588 19.516C25.096 19.516 24.61 19.606 24.13 19.786C23.65 19.966 23.218 20.26 22.834 20.668C22.462 21.076 22.162 21.61 21.934 22.27C21.706 22.93 21.592 23.74 21.592 24.7C21.592 25.564 21.7 26.32 21.916 26.968C22.132 27.616 22.426 28.156 22.798 28.588C23.182 29.02 23.626 29.344 24.13 29.56C24.646 29.776 25.204 29.884 25.804 29.884C26.344 29.884 26.812 29.83 27.208 29.722C27.616 29.614 27.958 29.476 28.234 29.308L28.594 30.478ZM36.1772 27.022H32.1092V31H30.6692V22H32.1092V25.762H36.1772V22H37.6172V31H36.1772V27.022ZM40.2459 22.666C40.7019 22.39 41.2299 22.186 41.8299 22.054C42.4419 21.922 43.0779 21.856 43.7379 21.856C44.3619 21.856 44.8599 21.94 45.2319 22.108C45.6159 22.276 45.9039 22.498 46.0959 22.774C46.2999 23.038 46.4319 23.332 46.4919 23.656C46.5639 23.98 46.5999 24.304 46.5999 24.628C46.5999 25.348 46.5819 26.05 46.5459 26.734C46.5099 27.418 46.4919 28.066 46.4919 28.678C46.4919 29.122 46.5099 29.542 46.5459 29.938C46.5819 30.334 46.6479 30.7 46.7439 31.036H45.6819L45.3039 29.776H45.2139C45.1059 29.944 44.9679 30.112 44.7999 30.28C44.6439 30.436 44.4519 30.58 44.2239 30.712C43.9959 30.832 43.7319 30.934 43.4319 31.018C43.1319 31.102 42.7899 31.144 42.4059 31.144C42.0219 31.144 41.6619 31.084 41.3259 30.964C41.0019 30.844 40.7199 30.676 40.4799 30.46C40.2399 30.232 40.0479 29.962 39.9039 29.65C39.7719 29.338 39.7059 28.984 39.7059 28.588C39.7059 28.06 39.8139 27.622 40.0299 27.274C40.2459 26.914 40.5459 26.632 40.9299 26.428C41.3259 26.212 41.7939 26.062 42.3339 25.978C42.8859 25.882 43.4919 25.834 44.1519 25.834C44.3199 25.834 44.4819 25.834 44.6379 25.834C44.8059 25.834 44.9739 25.846 45.1419 25.87C45.1779 25.51 45.1959 25.186 45.1959 24.898C45.1959 24.238 45.0639 23.776 44.7999 23.512C44.5359 23.248 44.0559 23.116 43.3599 23.116C43.1559 23.116 42.9339 23.134 42.6939 23.17C42.4659 23.194 42.2259 23.236 41.9739 23.296C41.7339 23.344 41.4999 23.41 41.2719 23.494C41.0559 23.566 40.8639 23.65 40.6959 23.746L40.2459 22.666ZM42.8019 29.884C43.1379 29.884 43.4379 29.842 43.7019 29.758C43.9659 29.662 44.1939 29.548 44.3859 29.416C44.5779 29.272 44.7339 29.116 44.8539 28.948C44.9859 28.78 45.0819 28.618 45.1419 28.462V26.968C44.9739 26.956 44.7999 26.95 44.6199 26.95C44.4519 26.938 44.2839 26.932 44.1159 26.932C43.7439 26.932 43.3779 26.956 43.0179 27.004C42.6699 27.04 42.3579 27.118 42.0819 27.238C41.8179 27.346 41.6019 27.502 41.4339 27.706C41.2779 27.898 41.1999 28.144 41.1999 28.444C41.1999 28.864 41.3499 29.212 41.6499 29.488C41.9499 29.752 42.3339 29.884 42.8019 29.884ZM50.2556 22V24.448C50.2556 24.772 50.2736 25.066 50.3096 25.33C50.3456 25.582 50.4176 25.804 50.5256 25.996C50.6336 26.176 50.7896 26.32 50.9936 26.428C51.1976 26.524 51.4676 26.572 51.8036 26.572C52.3436 26.572 52.7876 26.512 53.1356 26.392C53.4836 26.272 53.7476 26.14 53.9276 25.996V22H55.3676V31H53.9276V27.22C53.7356 27.34 53.4476 27.472 53.0636 27.616C52.6916 27.76 52.1756 27.832 51.5156 27.832C51.0716 27.832 50.6816 27.784 50.3456 27.688C50.0096 27.592 49.7276 27.424 49.4996 27.184C49.2716 26.944 49.0976 26.626 48.9776 26.23C48.8696 25.834 48.8156 25.336 48.8156 24.736V22H50.2556ZM57.9998 22.666C58.4558 22.39 58.9838 22.186 59.5838 22.054C60.1958 21.922 60.8318 21.856 61.4918 21.856C62.1158 21.856 62.6138 21.94 62.9858 22.108C63.3698 22.276 63.6578 22.498 63.8498 22.774C64.0538 23.038 64.1858 23.332 64.2458 23.656C64.3178 23.98 64.3538 24.304 64.3538 24.628C64.3538 25.348 64.3358 26.05 64.2998 26.734C64.2638 27.418 64.2458 28.066 64.2458 28.678C64.2458 29.122 64.2638 29.542 64.2998 29.938C64.3358 30.334 64.4018 30.7 64.4978 31.036H63.4358L63.0578 29.776H62.9678C62.8598 29.944 62.7218 30.112 62.5538 30.28C62.3978 30.436 62.2058 30.58 61.9778 30.712C61.7498 30.832 61.4858 30.934 61.1858 31.018C60.8858 31.102 60.5438 31.144 60.1598 31.144C59.7758 31.144 59.4158 31.084 59.0798 30.964C58.7558 30.844 58.4738 30.676 58.2338 30.46C57.9938 30.232 57.8018 29.962 57.6578 29.65C57.5258 29.338 57.4598 28.984 57.4598 28.588C57.4598 28.06 57.5678 27.622 57.7838 27.274C57.9998 26.914 58.2998 26.632 58.6838 26.428C59.0798 26.212 59.5478 26.062 60.0878 25.978C60.6398 25.882 61.2458 25.834 61.9058 25.834C62.0738 25.834 62.2358 25.834 62.3918 25.834C62.5598 25.834 62.7278 25.846 62.8958 25.87C62.9318 25.51 62.9498 25.186 62.9498 24.898C62.9498 24.238 62.8178 23.776 62.5538 23.512C62.2898 23.248 61.8098 23.116 61.1138 23.116C60.9098 23.116 60.6878 23.134 60.4478 23.17C60.2198 23.194 59.9798 23.236 59.7278 23.296C59.4878 23.344 59.2538 23.41 59.0258 23.494C58.8098 23.566 58.6178 23.65 58.4498 23.746L57.9998 22.666ZM60.5558 29.884C60.8918 29.884 61.1918 29.842 61.4558 29.758C61.7198 29.662 61.9478 29.548 62.1398 29.416C62.3318 29.272 62.4878 29.116 62.6078 28.948C62.7398 28.78 62.8358 28.618 62.8958 28.462V26.968C62.7278 26.956 62.5538 26.95 62.3738 26.95C62.2058 26.938 62.0378 26.932 61.8698 26.932C61.4978 26.932 61.1318 26.956 60.7718 27.004C60.4238 27.04 60.1118 27.118 59.8358 27.238C59.5718 27.346 59.3558 27.502 59.1878 27.706C59.0318 27.898 58.9538 28.144 58.9538 28.444C58.9538 28.864 59.1038 29.212 59.4038 29.488C59.7038 29.752 60.0878 29.884 60.5558 29.884ZM71.9155 23.26H69.3055C69.2695 23.764 69.2335 24.31 69.1975 24.898C69.1615 25.474 69.1075 26.056 69.0355 26.644C68.9635 27.22 68.8675 27.778 68.7475 28.318C68.6275 28.846 68.4715 29.314 68.2795 29.722C68.0995 30.13 67.8715 30.46 67.5955 30.712C67.3315 30.952 67.0135 31.072 66.6415 31.072C66.4135 31.072 66.2155 31.06 66.0475 31.036C65.8795 31.012 65.7295 30.97 65.5975 30.91L65.8135 29.704C65.9575 29.752 66.1135 29.776 66.2815 29.776C66.5215 29.776 66.7375 29.674 66.9295 29.47C67.1215 29.266 67.2895 28.882 67.4335 28.318C67.5775 27.742 67.6975 26.95 67.7935 25.942C67.8895 24.934 67.9555 23.62 67.9915 22H73.3555V31H71.9155V23.26ZM75.9822 22.666C76.4382 22.39 76.9662 22.186 77.5662 22.054C78.1782 21.922 78.8142 21.856 79.4742 21.856C80.0982 21.856 80.5962 21.94 80.9682 22.108C81.3522 22.276 81.6402 22.498 81.8322 22.774C82.0362 23.038 82.1682 23.332 82.2282 23.656C82.3002 23.98 82.3362 24.304 82.3362 24.628C82.3362 25.348 82.3182 26.05 82.2822 26.734C82.2462 27.418 82.2282 28.066 82.2282 28.678C82.2282 29.122 82.2462 29.542 82.2822 29.938C82.3182 30.334 82.3842 30.7 82.4802 31.036H81.4182L81.0402 29.776H80.9502C80.8422 29.944 80.7042 30.112 80.5362 30.28C80.3802 30.436 80.1882 30.58 79.9602 30.712C79.7322 30.832 79.4682 30.934 79.1682 31.018C78.8682 31.102 78.5262 31.144 78.1422 31.144C77.7582 31.144 77.3982 31.084 77.0622 30.964C76.7382 30.844 76.4562 30.676 76.2162 30.46C75.9762 30.232 75.7842 29.962 75.6402 29.65C75.5082 29.338 75.4422 28.984 75.4422 28.588C75.4422 28.06 75.5502 27.622 75.7662 27.274C75.9822 26.914 76.2822 26.632 76.6662 26.428C77.0622 26.212 77.5302 26.062 78.0702 25.978C78.6222 25.882 79.2282 25.834 79.8882 25.834C80.0562 25.834 80.2182 25.834 80.3742 25.834C80.5422 25.834 80.7102 25.846 80.8782 25.87C80.9142 25.51 80.9322 25.186 80.9322 24.898C80.9322 24.238 80.8002 23.776 80.5362 23.512C80.2722 23.248 79.7922 23.116 79.0962 23.116C78.8922 23.116 78.6702 23.134 78.4302 23.17C78.2022 23.194 77.9622 23.236 77.7102 23.296C77.4702 23.344 77.2362 23.41 77.0082 23.494C76.7922 23.566 76.6002 23.65 76.4322 23.746L75.9822 22.666ZM78.5382 29.884C78.8742 29.884 79.1742 29.842 79.4382 29.758C79.7022 29.662 79.9302 29.548 80.1222 29.416C80.3142 29.272 80.4702 29.116 80.5902 28.948C80.7222 28.78 80.8182 28.618 80.8782 28.462V26.968C80.7102 26.956 80.5362 26.95 80.3562 26.95C80.1882 26.938 80.0202 26.932 79.8522 26.932C79.4802 26.932 79.1142 26.956 78.7542 27.004C78.4062 27.04 78.0942 27.118 77.8182 27.238C77.5542 27.346 77.3382 27.502 77.1702 27.706C77.0142 27.898 76.9362 28.144 76.9362 28.444C76.9362 28.864 77.0862 29.212 77.3862 29.488C77.6862 29.752 78.0702 29.884 78.5382 29.884ZM97.8108 33.286H96.8388L96.5688 31H89.8008L89.5308 33.286H88.5588V29.74H89.6208C89.7168 29.608 89.8428 29.374 89.9988 29.038C90.1548 28.69 90.3048 28.21 90.4488 27.598C90.6048 26.974 90.7368 26.206 90.8447 25.294C90.9648 24.37 91.0368 23.272 91.0608 22H96.4968V29.74H97.8108V33.286ZM95.0568 29.74V23.26H92.3568C92.3328 23.764 92.2908 24.316 92.2308 24.916C92.1708 25.504 92.0868 26.098 91.9788 26.698C91.8828 27.286 91.7568 27.844 91.6008 28.372C91.4448 28.9 91.2648 29.356 91.0608 29.74H95.0568ZM106.163 30.28C105.803 30.568 105.347 30.796 104.795 30.964C104.255 31.132 103.679 31.216 103.067 31.216C102.383 31.216 101.789 31.108 101.285 30.892C100.781 30.664 100.367 30.346 100.043 29.938C99.719 29.518 99.479 29.02 99.323 28.444C99.167 27.868 99.089 27.22 99.089 26.5C99.089 24.964 99.431 23.794 100.115 22.99C100.799 22.186 101.777 21.784 103.049 21.784C103.457 21.784 103.865 21.832 104.273 21.928C104.681 22.012 105.047 22.18 105.371 22.432C105.695 22.684 105.959 23.044 106.163 23.512C106.367 23.968 106.469 24.574 106.469 25.33C106.469 25.726 106.433 26.164 106.361 26.644H100.583C100.583 27.172 100.637 27.64 100.745 28.048C100.853 28.456 101.021 28.804 101.249 29.092C101.477 29.368 101.771 29.584 102.131 29.74C102.503 29.884 102.953 29.956 103.481 29.956C103.889 29.956 104.297 29.884 104.705 29.74C105.113 29.596 105.419 29.428 105.623 29.236L106.163 30.28ZM103.067 23.044C102.359 23.044 101.789 23.23 101.357 23.602C100.937 23.974 100.685 24.61 100.601 25.51H105.065C105.065 24.598 104.891 23.962 104.543 23.602C104.195 23.23 103.703 23.044 103.067 23.044ZM108.734 31V22H110.174V29.74H113.252V22H114.692V29.74H117.77V22H119.21V31H108.734ZM128.558 30.28C128.198 30.568 127.742 30.796 127.19 30.964C126.65 31.132 126.074 31.216 125.462 31.216C124.778 31.216 124.184 31.108 123.68 30.892C123.176 30.664 122.762 30.346 122.438 29.938C122.114 29.518 121.874 29.02 121.718 28.444C121.562 27.868 121.484 27.22 121.484 26.5C121.484 24.964 121.826 23.794 122.51 22.99C123.194 22.186 124.172 21.784 125.444 21.784C125.852 21.784 126.26 21.832 126.668 21.928C127.076 22.012 127.442 22.18 127.766 22.432C128.09 22.684 128.354 23.044 128.558 23.512C128.762 23.968 128.864 24.574 128.864 25.33C128.864 25.726 128.828 26.164 128.756 26.644H122.978C122.978 27.172 123.032 27.64 123.14 28.048C123.248 28.456 123.416 28.804 123.644 29.092C123.872 29.368 124.166 29.584 124.526 29.74C124.898 29.884 125.348 29.956 125.876 29.956C126.284 29.956 126.692 29.884 127.1 29.74C127.508 29.596 127.814 29.428 128.018 29.236L128.558 30.28ZM125.462 23.044C124.754 23.044 124.184 23.23 123.752 23.602C123.332 23.974 123.08 24.61 122.996 25.51H127.46C127.46 24.598 127.286 23.962 126.938 23.602C126.59 23.23 126.098 23.044 125.462 23.044ZM122.744 19.588C122.744 19.312 122.822 19.09 122.978 18.922C123.146 18.754 123.362 18.67 123.626 18.67C123.89 18.67 124.1 18.754 124.256 18.922C124.424 19.09 124.508 19.312 124.508 19.588C124.508 19.84 124.424 20.05 124.256 20.218C124.1 20.386 123.89 20.47 123.626 20.47C123.362 20.47 123.146 20.386 122.978 20.218C122.822 20.05 122.744 19.84 122.744 19.588ZM126.2 19.588C126.2 19.312 126.278 19.09 126.434 18.922C126.602 18.754 126.818 18.67 127.082 18.67C127.358 18.67 127.574 18.754 127.73 18.922C127.898 19.09 127.982 19.312 127.982 19.588C127.982 19.84 127.898 20.05 127.73 20.218C127.574 20.386 127.358 20.47 127.082 20.47C126.818 20.47 126.602 20.386 126.434 20.218C126.278 20.05 126.2 19.84 126.2 19.588ZM131.128 22.018C131.548 21.994 131.986 21.964 132.442 21.928C132.91 21.892 133.486 21.874 134.17 21.874C135.358 21.874 136.21 22.06 136.726 22.432C137.242 22.792 137.5 23.344 137.5 24.088C137.5 24.508 137.374 24.922 137.122 25.33C136.882 25.726 136.48 26.02 135.916 26.212V26.284C136.624 26.416 137.122 26.662 137.41 27.022C137.698 27.382 137.842 27.862 137.842 28.462C137.842 29.398 137.506 30.076 136.834 30.496C136.162 30.916 135.154 31.126 133.81 31.126C133.306 31.126 132.838 31.108 132.406 31.072C131.974 31.048 131.548 31.018 131.128 30.982V22.018ZM132.568 29.794C132.796 29.818 133.018 29.836 133.234 29.848C133.462 29.86 133.726 29.866 134.026 29.866C134.83 29.866 135.424 29.752 135.808 29.524C136.204 29.296 136.402 28.906 136.402 28.354C136.402 27.922 136.234 27.574 135.898 27.31C135.574 27.034 134.992 26.896 134.152 26.896H132.568V29.794ZM134.332 25.798C134.548 25.798 134.758 25.762 134.962 25.69C135.166 25.618 135.346 25.522 135.502 25.402C135.67 25.27 135.802 25.12 135.898 24.952C136.006 24.784 136.06 24.604 136.06 24.412C136.06 23.932 135.916 23.602 135.628 23.422C135.34 23.23 134.836 23.134 134.116 23.134C133.732 23.134 133.426 23.14 133.198 23.152C132.982 23.164 132.772 23.176 132.568 23.188V25.798H134.332ZM141.551 29.74C141.995 29.812 142.421 29.848 142.829 29.848C143.585 29.848 144.113 29.704 144.413 29.416C144.713 29.116 144.863 28.696 144.863 28.156C144.863 27.676 144.713 27.28 144.413 26.968C144.125 26.656 143.615 26.5 142.883 26.5C142.679 26.5 142.457 26.506 142.217 26.518C141.977 26.53 141.755 26.566 141.551 26.626V29.74ZM141.551 25.438C141.839 25.39 142.115 25.36 142.379 25.348C142.643 25.324 142.895 25.312 143.135 25.312C143.747 25.312 144.257 25.384 144.665 25.528C145.085 25.66 145.421 25.846 145.673 26.086C145.925 26.326 146.099 26.614 146.195 26.95C146.303 27.274 146.357 27.622 146.357 27.994C146.357 29.086 146.051 29.878 145.439 30.37C144.839 30.862 143.861 31.108 142.505 31.108C141.737 31.108 140.939 31.072 140.111 31V22H141.551V25.438ZM147.779 22H149.219V31H147.779V22ZM158.563 30.28C158.203 30.568 157.747 30.796 157.195 30.964C156.655 31.132 156.079 31.216 155.467 31.216C154.783 31.216 154.189 31.108 153.685 30.892C153.181 30.664 152.767 30.346 152.443 29.938C152.119 29.518 151.879 29.02 151.723 28.444C151.567 27.868 151.489 27.22 151.489 26.5C151.489 24.964 151.831 23.794 152.515 22.99C153.199 22.186 154.177 21.784 155.449 21.784C155.857 21.784 156.265 21.832 156.673 21.928C157.081 22.012 157.447 22.18 157.771 22.432C158.095 22.684 158.359 23.044 158.563 23.512C158.767 23.968 158.869 24.574 158.869 25.33C158.869 25.726 158.833 26.164 158.761 26.644H152.983C152.983 27.172 153.037 27.64 153.145 28.048C153.253 28.456 153.421 28.804 153.649 29.092C153.877 29.368 154.171 29.584 154.531 29.74C154.903 29.884 155.353 29.956 155.881 29.956C156.289 29.956 156.697 29.884 157.105 29.74C157.513 29.596 157.819 29.428 158.023 29.236L158.563 30.28ZM155.467 23.044C154.759 23.044 154.189 23.23 153.757 23.602C153.337 23.974 153.085 24.61 153.001 25.51H157.465C157.465 24.598 157.291 23.962 156.943 23.602C156.595 23.23 156.103 23.044 155.467 23.044Z" fill="#333333"/>
<rect x="1" y="1" width="285" height="46" rx="3" stroke="#E5E5E5" stroke-width="2"/>
<path d="M260.6 26.725L265.7 21.425C266 21.125 266 20.525 265.7 20.225C265.4 19.925 264.8 19.925 264.5 20.225L260 24.925L255.5 20.225C255.2 19.925 254.6 19.925 254.3 20.225C254.1 20.325 254 20.625 254 20.825C254 21.025 254.1 21.225 254.3 21.425L259.4 26.725C259.7 27.125 260.3 27.125 260.6 26.725Z" fill="#E5E5E5"/>
</svg>
